name C:\Users\r0593348\3dpredictsim\Results\batch_windlass\Pog_s1_tmt_bCst_d00_k1500_WL30_ig24.mot
datacolumns 128
datarows 4
range 1.08047471 1.11288896
endheader
time	pelvis_tilt	pelvis_list	pelvis_rotation	pelvis_tx	pelvis_ty	pelvis_tz	hip_flexion_l	hip_adduction_l	hip_rotation_l	hip_flexion_r	hip_adduction_r	hip_rotation_r	knee_angle_l	knee_angle_r	ankle_angle_l	ankle_angle_r	subtalar_angle_l	subtalar_angle_r	tmt_angle_l	tmt_angle_r	mtp_angle_l	mtp_angle_r	lumbar_extension	lumbar_bending	lumbar_rotation	arm_flex_l	arm_add_l	arm_rot_l	arm_flex_r	arm_add_r	arm_rot_r	elbow_flex_l	elbow_flex_r	pro_sup_l	pro_sup_r	glut_med1_l/activation	glut_med2_l/activation	glut_med3_l/activation	glut_min1_l/activation	glut_min2_l/activation	glut_min3_l/activation	semimem_l/activation	semiten_l/activation	bifemlh_l/activation	bifemsh_l/activation	sar_l/activation	add_long_l/activation	add_brev_l/activation	add_mag1_l/activation	add_mag2_l/activation	add_mag3_l/activation	tfl_l/activation	pect_l/activation	grac_l/activation	glut_max1_l/activation	glut_max2_l/activation	glut_max3_l/activation	iliacus_l/activation	psoas_l/activation	quad_fem_l/activation	gem_l/activation	peri_l/activation	rect_fem_l/activation	vas_med_l/activation	vas_int_l/activation	vas_lat_l/activation	med_gas_l/activation	lat_gas_l/activation	soleus_l/activation	tib_post_l/activation	flex_dig_l/activation	flex_hal_l/activation	tib_ant_l/activation	per_brev_l/activation	per_long_l/activation	per_tert_l/activation	ext_dig_l/activation	ext_hal_l/activation	ercspn_l/activation	intobl_l/activation	extobl_l/activation	glut_med1_r/activation	glut_med2_r/activation	glut_med3_r/activation	glut_min1_r/activation	glut_min2_r/activation	glut_min3_r/activation	semimem_r/activation	semiten_r/activation	bifemlh_r/activation	bifemsh_r/activation	sar_r/activation	add_long_r/activation	add_brev_r/activation	add_mag1_r/activation	add_mag2_r/activation	add_mag3_r/activation	tfl_r/activation	pect_r/activation	grac_r/activation	glut_max1_r/activation	glut_max2_r/activation	glut_max3_r/activation	iliacus_r/activation	psoas_r/activation	quad_fem_r/activation	gem_r/activation	peri_r/activation	rect_fem_r/activation	vas_med_r/activation	vas_int_r/activation	vas_lat_r/activation	med_gas_r/activation	lat_gas_r/activation	soleus_r/activation	tib_post_r/activation	flex_dig_r/activation	flex_hal_r/activation	tib_ant_r/activation	per_brev_r/activation	per_long_r/activation	per_tert_r/activation	ext_dig_r/activation	ext_hal_r/activation	ercspn_r/activation	intobl_r/activation	extobl_r/activation	
          1.08047471	         -2.92915559	         -1.92522271	          5.74088618	          1.35059339	          0.86169744	         -0.00153863	        -16.82926594	         -1.82840091	          8.02193016	         31.48811959	          2.43727710	         -1.99919839	         -9.43472788	        -16.97448962	          1.94873571	          6.23787411	         14.21300373	          1.36818689	         -8.40844406	         -0.41060192	         26.45543645	          1.16530790	         -1.26926958	          0.27955073	         -1.94127136	          7.24107058	        -13.46007297	         17.06681547	        -10.66316716	        -13.61499026	          8.47621687	         36.22197305	         15.47694212	         86.51662706	         86.51662706	          0.32728474	          0.11424369	          0.05157370	          0.32223815	          0.22184995	          0.11025324	          0.05000375	          0.05000017	          0.05000010	          0.06962937	          0.08134727	          0.08500490	          0.05000027	          0.05000021	          0.05000076	          0.05900370	          0.27063600	          0.05000061	          0.05000011	          0.05000063	          0.05000051	          0.05000042	          0.25852537	          0.49651128	          0.05000002	          0.05000014	          0.05000004	          0.19171606	          0.05000256	          0.06386691	          0.12450989	          0.26745333	          0.34530712	          0.22668734	          0.20258922	          0.21018354	          0.26575763	          0.05000000	          0.13778812	          0.19458523	          0.05000003	          0.05000000	          0.05000002	          0.05000000	          0.05000003	          0.05000000	          0.06962920	          0.05000905	          0.05900395	          0.05000007	          0.05000010	          0.05000058	          0.05000090	          0.05900400	          0.05694657	          0.05000037	          0.05000007	          0.08883593	          0.14021415	          0.15109133	          0.15380679	          0.11691484	          0.05865497	          0.05000074	          0.05900420	          0.05900399	          0.11686606	          0.08424533	          0.05000059	          0.05929286	          0.23830263	          0.05000006	          0.05000014	          0.05121250	          0.08938657	          0.10165760	          0.07512721	          0.05000000	          0.05000002	          0.06207683	          0.05900394	          0.05900418	          0.05900414	          0.49632888	          0.35752715	          0.20738576	          0.08060664	          0.55700608	          0.21928261	          0.05578738	          0.10099038	          0.12331961	
          1.09127946	         -2.92340047	         -2.00748191	          5.98679072	          1.36706944	          0.86092639	         -0.00131403	        -16.59482851	         -2.08162656	          7.77477082	         30.77015008	          2.81793290	         -1.78456698	        -11.45370550	        -16.35162527	          0.89729869	          5.90665341	         15.03996160	          0.91641302	         -8.82273849	         -0.50677751	         27.33613993	          1.43743838	         -1.05918255	          0.51572664	         -2.02272610	          6.99962594	        -13.48125124	         17.27015961	        -11.74586931	        -13.60096718	          8.30491968	         37.27595243	         15.46598503	         86.51662706	         86.51662706	          0.27734139	          0.09681020	          0.05000001	          0.27306490	          0.18799584	          0.09342870	          0.05000018	          0.05000003	          0.05000002	          0.05900399	          0.06893380	          0.14189480	          0.18015543	          0.05464078	          0.05000039	          0.05000006	          0.22933722	          0.12085448	          0.05000078	          0.05000028	          0.05000016	          0.05000009	          0.21907464	          0.45541341	          0.05000005	          0.05000015	          0.05000006	          0.16255213	          0.12942013	          0.05412268	          0.10551376	          0.22664017	          0.29261354	          0.19209503	          0.17167428	          0.17810975	          0.22520326	          0.05000006	          0.11676177	          0.16489169	          0.05000003	          0.09140911	          0.05000007	          0.05133753	          0.05942198	          0.05000004	          0.05900390	          0.05192295	          0.05000002	          0.05900399	          0.05900397	          0.05000274	          0.05000003	          0.05000005	          0.05900397	          0.05000002	          0.05000184	          0.09696534	          0.26991936	          0.12803500	          0.13033610	          0.12884181	          0.05000003	          0.08216794	          0.05000028	          0.05000005	          0.18221827	          0.17266999	          0.05900396	          0.05426648	          0.23879913	          0.19295996	          0.14240584	          0.06962930	          0.21662669	          0.21083648	          0.18048857	          0.05164332	          0.05010641	          0.05823105	          0.05000000	          0.05000021	          0.05000018	          0.65147654	          0.31826503	          0.17573889	          0.45850910	          0.64383190	          0.37217437	          0.05000002	          0.08557933	          0.10450114	
          1.10208421	         -2.91299256	         -2.09114363	          6.20661840	          1.38378306	          0.85992564	         -0.00109878	        -16.27583388	         -2.31822734	          7.51015508	         29.91369090	          3.17602159	         -1.50041630	        -13.65516357	        -16.27800147	         -0.18261991	          5.41404019	         15.79286151	          0.44849902	         -9.10177468	         -0.65392166	         27.73278654	          1.76573643	         -0.83339498	          0.76074832	         -2.09370021	          6.68472435	        -13.50856334	         17.40075790	        -12.80846672	        -13.59154567	          8.19683862	         38.30249808	         15.42091147	         86.51662706	         86.51662706	          0.23501933	          0.08203705	          0.05002915	          0.23139544	          0.15930785	          0.07917157	          0.05000141	          0.05000017	          0.05900142	          0.05000004	          0.05841458	          0.21168469	          0.32061703	          0.21522386	          0.09219229	          0.12713053	          0.19434059	          0.10241233	          0.05000047	          0.05033659	          0.05900380	          0.05900405	          0.18564404	          0.41863240	          0.05900396	          0.05900392	          0.05000014	          0.13774683	          0.13371713	          0.14674505	          0.09582787	          0.19205506	          0.24796095	          0.16278149	          0.14547693	          0.15093037	          0.19083744	          0.16974212	          0.09894407	          0.16674720	          0.05000013	          0.21149983	          0.14215615	          0.06350688	          0.06061784	          0.06574118	          0.05000000	          0.05000002	          0.15625430	          0.05000003	          0.05000003	          0.05000003	          0.05000009	          0.05000010	          0.05000007	          0.05000001	          0.05000006	          0.08216854	          0.22872997	          0.34403428	          0.28642709	          0.16426409	          0.05000013	          0.06962947	          0.13140842	          0.15129206	          0.15441213	          0.14632073	          0.05000003	          0.05000003	          0.29797707	          0.16351444	          0.12067484	          0.05900397	          0.24040062	          0.24266139	          0.20484350	          0.05900395	          0.05900396	          0.05900401	          0.05900394	          0.05900418	          0.05900407	          0.57315563	          0.39421582	          0.19555341	          0.40181244	          0.60289616	          0.31538089	          0.05000000	          0.07252000	          0.08855435	
          1.11288896	         -2.89933821	         -2.18169573	          6.39432789	          1.40058127	          0.85868119	         -0.00089982	        -15.85989731	         -2.53583995	          7.24067747	         28.89278502	          3.48930119	         -1.19102313	        -16.06389191	        -16.45804015	         -1.18990990	          5.25431981	         16.44398642	         -0.05520005	         -9.06862685	         -1.17404510	         27.22114153	          1.91707769	         -0.60562301	          1.01956040	         -2.15203003	          6.31718565	        -13.53902151	         17.46162681	        -13.81305353	        -13.59458837	          8.19301778	         39.29878121	         15.31351234	         86.51662706	         86.51662706	          0.22925972	          0.06951828	          0.05000000	          0.21694458	          0.13499767	          0.06709010	          0.05000221	          0.05000006	          0.05000003	          0.05000050	          0.06963167	          0.17938181	          0.27169115	          0.18238089	          0.07812386	          0.10773053	          0.25882314	          0.08678445	          0.05000049	          0.05000014	          0.05000010	          0.05000011	          0.18268905	          0.40431565	          0.05000002	          0.05000009	          0.05000009	          0.11672679	          0.11331201	          0.12435188	          0.08120462	          0.16274761	          0.21012232	          0.13794116	          0.12327729	          0.12789856	          0.16171583	          0.24010320	          0.14755507	          0.15772334	          0.22759505	          0.26248872	          0.15379341	          0.08858141	          0.05136761	          0.05570914	          0.28688005	          0.30253322	          0.39103295	          0.30134665	          0.15909148	          0.22208535	          0.09370494	          0.12271527	          0.09716751	          0.06185589	          0.05000016	          0.06962969	          0.19382597	          0.29153497	          0.24271864	          0.15828826	          0.05000004	          0.05900431	          0.11767782	          0.24633197	          0.19734793	          0.13757383	          0.05000006	          0.05000004	          0.25250605	          0.13856231	          0.27304956	          0.05000002	          0.20371578	          0.22209520	          0.17358480	          0.05000000	          0.05000001	          0.05000004	          0.05000000	          0.05000021	          0.05000011	          0.67988062	          0.33417590	          0.16571213	          0.65228051	          0.70151634	          0.47101701	          0.05477980	          0.08216814	          0.07504103	
